<mxfile host="app.diagrams.net" modified="2023-11-13T09:58:46.266Z" agent="Mozilla/5.0 (Macintosh; Intel Mac OS X 10_15_7) AppleWebKit/537.36 (KHTML, like Gecko) Chrome/118.0.0.0 Safari/537.36" version="22.1.0" etag="uJ0KMc8CneluE2mq9kEe" type="github">
  <diagram name="第 1 页" id="KoWEntiadN63PLK23MD9">
    <mxGraphModel>
      <root>
        <mxCell id="0" />
        <mxCell id="1" parent="0" />
      </root>
    </mxGraphModel>
  </diagram>
</mxfile>
